<svg width="30" height="28" viewBox="0 0 30 28" fill="none" xmlns="http://www.w3.org/2000/svg">
<g clip-path="url(#clip0_17_222)">
<path d="M29.8979 14.0242C24.5976 13.1883 19.4374 11.4503 16.0763 9.84851C14.1283 14.9566 10.3718 20.4329 6.44115 24.1996C6.22621 24.3819 6.3967 24.6998 6.74866 24.4541C15.146 18.6363 23.8978 15.8418 29.9057 14.6743C30.2347 14.6004 30.2378 14.1159 29.8979 14.0242Z" fill="#821642"/>
<path d="M1.08214 0.474315C3.07308 5.63427 5.35166 16.0956 0.012672 27.5862C-0.0516532 27.7355 0.139753 27.8664 0.342142 27.7355C6.74014 23.5398 12.3186 15.4943 14.1543 8.92164C7.78503 5.6547 3.95324 2.2809 1.63544 0.116559C1.32741 -0.179911 0.94774 0.144321 1.08214 0.474315Z" fill="#EE2527"/>
</g>
<defs>
<clipPath id="clip0_17_222">
<rect width="30" height="28" fill="white"/>
</clipPath>
</defs>
</svg>
