<svg width="134" height="54" viewBox="0 0 134 54" fill="none" xmlns="http://www.w3.org/2000/svg">
<g clip-path="url(#clip0_17_269)">
<path fill-rule="evenodd" clip-rule="evenodd" d="M5.38558 38.8953C6.85414 38.8953 8.3342 39.1975 9.56386 39.7549C9.61465 39.7781 9.64818 39.8259 9.65827 39.8799L9.66032 39.9353L9.30004 42.2692C9.28727 42.3279 9.25533 42.3736 9.20998 42.3942C9.18634 42.4123 9.15951 42.4194 9.12949 42.4194L9.09204 42.4136L9.05603 42.3942C7.70628 41.6867 6.47471 41.3413 5.30701 41.3413C4.06713 41.3413 3.12684 41.996 3.12684 42.8691C3.12684 43.7862 3.72348 44.1629 5.73196 44.8704L6.00201 44.9647C8.84715 45.9647 10.3853 46.9687 10.3853 49.407C10.3853 52.0992 8.23264 53.9106 5.02467 53.9106C3.49159 53.9106 1.73941 53.5246 0.100289 52.8274C0.0451939 52.8037 0.0109392 52.7546 0.00129752 52.7011L0 52.6469L0.366023 50.3626C0.374966 50.3136 0.406905 50.2673 0.45673 50.2389C0.479087 50.226 0.502084 50.2176 0.530829 50.2176L0.570034 50.2241L0.610677 50.2441C2.04602 50.9973 3.82759 51.4909 5.13901 51.4909C6.72 51.4909 7.73183 50.7911 7.73183 49.7124C7.73183 48.6871 7.1271 48.2647 5.31928 47.6248L5.05278 47.5319C2.01792 46.4603 0.474616 45.4924 0.474616 43.1772C0.474616 40.6576 2.49573 38.8953 5.38558 38.8953ZM15.7871 39.091C15.8628 39.091 15.9261 39.1397 15.9485 39.206L15.9571 39.2585V47.879C15.9571 50.2065 17.0577 51.4921 19.0552 51.4921C21.0266 51.4921 22.1031 50.349 22.1801 48.1917L22.1846 47.9383V39.2585C22.1846 39.1853 22.2328 39.122 22.2982 39.0996L22.35 39.091H24.8911C24.9688 39.091 25.0329 39.1397 25.0555 39.206L25.0642 39.2585V47.879C25.0642 51.7086 22.8029 54 19.0277 54C15.4235 54 13.2283 51.8741 13.1123 48.2935L13.1074 47.9918V39.2585C13.1074 39.1853 13.1565 39.122 13.2219 39.0996L13.2735 39.091H15.7871ZM64.1563 43.6583C64.1563 40.794 62.1007 39.0909 58.6538 39.0909H54.2673L54.2165 39.0996C54.1527 39.122 54.107 39.1854 54.107 39.2591V53.5424L54.1151 53.5958C54.1363 53.6641 54.1963 53.7177 54.2673 53.7177H56.786L56.8381 53.7082C56.9034 53.6838 56.9495 53.6156 56.9495 53.5424V48.1934H58.2354L62.1428 53.8137L62.1819 53.8525C62.2108 53.8724 62.2448 53.8807 62.2815 53.8807L62.294 53.8802L64.9152 53.2834L64.9627 53.2641C64.9928 53.2451 65.0187 53.215 65.034 53.1815C65.0538 53.1235 65.048 53.0701 65.011 53.0211L61.2945 47.7952L61.5414 47.6926C63.2326 46.9427 64.1563 45.5245 64.1563 43.6583ZM50.6677 39.0908C50.7382 39.0908 50.8034 39.1394 50.8267 39.2061L50.8357 39.2589V41.482C50.8357 41.5609 50.7846 41.6233 50.719 41.6451L50.6677 41.6535H44.5514V44.8393H49.4068C49.471 44.8393 49.5254 44.873 49.5554 44.9238L49.5767 44.9797L49.9363 47.2086C49.9446 47.2563 49.9325 47.3059 49.8993 47.3478C49.8784 47.3684 49.8496 47.3845 49.8187 47.3929L49.7715 47.3994H44.5514V51.1548H50.8625C50.9351 51.1548 50.9954 51.2039 51.0166 51.2687L51.0248 51.3198V53.5448C51.0248 53.6165 50.979 53.6848 50.9142 53.7093L50.8625 53.7188H41.8659C41.7954 53.7188 41.731 53.6648 41.7081 53.5973L41.6992 53.5448V39.2589C41.6992 39.1852 41.7495 39.1218 41.8147 39.0994L41.8659 39.0908H50.6677ZM98.7786 39.2061C98.7558 39.1394 98.6911 39.0908 98.6149 39.0908H89.8208L89.7692 39.0994C89.7043 39.1218 89.6573 39.1852 89.6573 39.2589V53.5448L89.6656 53.5973C89.6873 53.6648 89.7488 53.7188 89.8208 53.7188H98.8142L98.8662 53.7093C98.9326 53.6848 98.9842 53.6165 98.9842 53.5448V51.3198L98.9751 51.2687C98.9516 51.2039 98.8858 51.1548 98.8142 51.1548H92.5031V47.3994H97.7245L97.7729 47.3929C97.8037 47.3845 97.8316 47.3684 97.8554 47.3478C97.8835 47.3059 97.8982 47.2563 97.8886 47.2086L97.5239 44.9797L97.5115 44.9342C97.4856 44.8776 97.4257 44.8393 97.3648 44.8393H92.5031V41.6535H98.6149L98.6694 41.6451C98.7379 41.6233 98.7874 41.5609 98.7874 41.482V39.2589L98.7786 39.2061ZM133.638 39.0909C133.709 39.0909 133.774 39.1395 133.796 39.2062L133.805 39.2591V41.4822C133.805 41.561 133.755 41.6234 133.69 41.6452L133.638 41.6536H127.513V44.8394H132.374C132.446 44.8394 132.503 44.8777 132.527 44.9343L132.539 44.9798L132.909 47.2088C132.915 47.2564 132.897 47.3061 132.869 47.3479C132.848 47.3686 132.819 47.3846 132.788 47.393L132.742 47.3995H127.513V51.1549H133.835C133.906 51.1549 133.969 51.204 133.991 51.2688L134 51.3199V53.5449C134 53.6166 133.951 53.6849 133.886 53.7094L133.835 53.7189H124.841C124.763 53.7189 124.702 53.6649 124.681 53.5974L124.672 53.5449V39.2591C124.672 39.1853 124.718 39.1219 124.786 39.0995L124.841 39.0909H133.638ZM38.9045 43.6261C38.9045 40.8283 36.9083 39.091 33.6888 39.091H29.0755L29.0247 39.0996C28.9613 39.122 28.9171 39.1853 28.9171 39.2585V53.5463L28.925 53.5981C28.9455 53.6645 29.004 53.7177 29.0755 53.7177H31.5924L31.6446 53.7084C31.7104 53.6843 31.7578 53.617 31.7578 53.5463V48.2438H33.3778L33.6934 48.2391C37.0154 48.1408 38.9045 46.4742 38.9045 43.6261ZM84.8728 39.091C84.9484 39.091 85.0134 39.1397 85.0364 39.206L85.0452 39.2585V53.5457C85.0452 53.6168 84.9953 53.6843 84.927 53.7084L84.8728 53.7177H82.333C82.2619 53.7177 82.195 53.6645 82.171 53.5977L82.1618 53.5457V39.2585C82.1618 39.1853 82.2145 39.122 82.2811 39.0996L82.333 39.091H84.8728ZM116.604 39.2054C116.583 39.1388 116.522 39.0909 116.451 39.0909H113.935L113.883 39.0994C113.818 39.1215 113.771 39.1842 113.771 39.2585V53.5456L113.779 53.5976C113.801 53.6642 113.863 53.717 113.935 53.717H122.178L122.222 53.7104C122.251 53.7015 122.28 53.6833 122.302 53.6545C122.334 53.6165 122.344 53.5688 122.342 53.5166L121.976 51.3186L121.963 51.2739C121.938 51.2175 121.878 51.1762 121.817 51.1762H116.613V39.2585L116.604 39.2054ZM105.403 39.0909C105.48 39.0909 105.541 39.1388 105.562 39.2054L105.57 39.2585V51.1762H110.764C110.828 51.1762 110.88 51.2125 110.909 51.2635L110.93 51.3186L111.295 53.5166C111.302 53.5688 111.289 53.6165 111.259 53.6545C111.237 53.6833 111.207 53.7015 111.177 53.7104L111.13 53.717H102.889C102.818 53.717 102.757 53.6642 102.735 53.5976L102.727 53.5456V39.2585C102.727 39.1842 102.774 39.1215 102.838 39.0994L102.889 39.0909H105.403ZM68.7869 39.1652C68.7549 39.1221 68.7027 39.0945 68.6548 39.0945H65.894L65.8466 39.1122C65.818 39.1275 65.7958 39.15 65.7822 39.1796C65.7541 39.2241 65.7496 39.273 65.7675 39.3201L71.2904 53.5969L71.3158 53.6397C71.3458 53.6775 71.3891 53.7 71.4418 53.7H73.7727L73.8221 53.6928C73.8691 53.6786 73.9077 53.6443 73.9254 53.5969L79.5371 39.3375L79.5508 39.2826C79.5537 39.2455 79.5442 39.2086 79.5224 39.1777C79.4943 39.1306 79.4375 39.1068 79.3825 39.1068H76.8472L76.7926 39.1144C76.7422 39.1295 76.7051 39.1662 76.6888 39.2189L72.7124 49.9169L68.8113 39.2131L68.7869 39.1652ZM58.7797 41.6298L56.9494 41.6279V45.8795H58.6256C60.3522 45.8795 61.3066 45.0991 61.3066 43.6828C61.3066 42.0562 59.9684 41.66 58.7797 41.6298ZM31.7578 41.5686H33.4346L33.5889 41.5706C34.7792 41.6019 36.1156 42.0124 36.1156 43.6828C36.1156 45.105 35.2264 45.8009 33.3777 45.8009H31.7578V41.5686Z" fill="#3B3A45"/>
<path d="M133.683 17.2526C127.209 16.2241 120.907 14.0861 116.801 12.1156C114.422 18.3995 109.833 25.1365 105.032 29.7702C104.77 29.9945 104.978 30.3856 105.408 30.0834C115.665 22.9263 126.355 19.4885 133.693 18.0522C134.095 17.9614 134.099 17.3653 133.683 17.2526Z" fill="#821642"/>
<path d="M98.4864 0.583502C100.918 6.93127 103.701 19.8008 97.1801 33.9365C97.1015 34.1202 97.3353 34.2813 97.5825 34.1202C105.397 28.9587 112.211 19.061 114.453 10.9754C106.674 6.9564 101.993 2.80596 99.1622 0.143391C98.786 -0.221327 98.3222 0.177543 98.4864 0.583502Z" fill="#EE2527"/>
</g>
<defs>
<clipPath id="clip0_17_269">
<rect width="134" height="54" fill="white"/>
</clipPath>
</defs>
</svg>
